<?xml version="1.0" encoding="utf-8"?>
<!-- Generator: Adobe Illustrator 16.0.4, SVG Export Plug-In . SVG Version: 6.00 Build 0)  -->
<!DOCTYPE svg PUBLIC "-//W3C//DTD SVG 1.1//EN" "http://www.w3.org/Graphics/SVG/1.1/DTD/svg11.dtd">
<svg version="1.1" id="Layer_1" xmlns="http://www.w3.org/2000/svg" xmlns:xlink="http://www.w3.org/1999/xlink" x="0px" y="0px"
	 width="57.312px" height="73.312px" viewBox="0 0 57.312 73.312" enable-background="new 0 0 57.312 73.312" xml:space="preserve">
<g>
	<path d="M42.479,17.712h13.919L39.084,0.54v13.777C39.084,16.189,40.606,17.712,42.479,17.712z"/>
	<path d="M42.479,19.712c-2.975,0-5.395-2.42-5.395-5.395V0.499H5.229c-2.427,0-4.395,1.968-4.395,4.395v63.483
		c0,2.428,1.968,4.395,4.395,4.395h47.043c2.427,0,4.395-1.967,4.395-4.395V19.712H42.479z M30.705,57.541
		c-0.929,0.757-2.142,1.136-3.638,1.136c-1.479,0-2.678-0.383-3.598-1.149s-1.379-1.745-1.379-2.936s0.455-2.165,1.366-2.922
		c0.91-0.757,2.114-1.136,3.611-1.136c1.515,0,2.732,0.374,3.652,1.122c0.92,0.749,1.38,1.728,1.38,2.936
		S31.635,56.782,30.705,57.541z M36.839,39.429c-1.529,1.524-4.092,2.953-7.689,4.288v2.164c0,0.595-0.19,1.078-0.572,1.447
		c-0.381,0.369-0.88,0.555-1.498,0.555c-0.636,0-1.13-0.172-1.484-0.515c-0.354-0.342-0.531-0.82-0.531-1.434v-1.596
		c0-0.974,0.167-1.74,0.5-2.3c0.333-0.559,0.906-1.046,1.718-1.461c0.487-0.252,1.208-0.604,2.164-1.055
		c3.553-1.641,5.329-3.562,5.329-5.762c0-1.66-0.586-3.008-1.758-4.045c-1.173-1.037-2.715-1.556-4.626-1.556
		c-1.263,0-2.426,0.167-3.49,0.501c-1.064,0.334-1.713,0.699-1.948,1.095c-0.054,0.108-0.108,0.37-0.162,0.785
		c-0.145,1.623-0.785,2.435-1.921,2.435c-0.595,0-1.068-0.217-1.42-0.649c-0.352-0.434-0.528-1.01-0.528-1.732v-2.651
		c0-0.992,0.974-1.831,2.921-2.516s4.319-1.028,7.115-1.028c3.012,0,5.459,0.875,7.346,2.624c1.884,1.749,2.826,4.013,2.826,6.79
		C39.133,36.033,38.367,37.905,36.839,39.429z"/>
</g>
</svg>
