<?xml version="1.0" encoding="utf-8"?>
<!-- Generator: Adobe Illustrator 16.0.4, SVG Export Plug-In . SVG Version: 6.00 Build 0)  -->
<!DOCTYPE svg PUBLIC "-//W3C//DTD SVG 1.1//EN" "http://www.w3.org/Graphics/SVG/1.1/DTD/svg11.dtd">
<svg version="1.1" id="Layer_1" xmlns="http://www.w3.org/2000/svg" xmlns:xlink="http://www.w3.org/1999/xlink" x="0px" y="0px"
	 width="80px" height="80px" viewBox="0 0 80 80" enable-background="new 0 0 80 80" xml:space="preserve">
<path fill="#FFFFFF" d="M77.814,37.541L43.066,2.793c-1.692-1.695-4.439-1.695-6.132,0L2.186,37.541
	c-1.693,1.692-1.693,4.438,0.001,6.132l34.748,34.75c0.021,0.021,0.048,0.037,0.069,0.056c-0.3-24.139-9.449-33.625-15.198-37.201
	c-1.096,0.884-2.488,1.417-4.006,1.417c-3.527,0-6.387-2.863-6.387-6.39c0-3.528,2.859-6.389,6.387-6.389
	c3.334,0,6.067,2.553,6.36,5.809c3.876,2.209,8.955,6.386,12.859,14.135V19.773c-2.025-1.072-3.407-3.198-3.407-5.649
	c0-3.527,2.858-6.388,6.389-6.388c3.528,0,6.388,2.86,6.388,6.388c0,2.451-1.382,4.577-3.407,5.649V49.86
	c3.898-7.737,8.966-11.914,12.841-14.125c0.289-3.26,3.024-5.816,6.358-5.816c3.529,0,6.389,2.858,6.389,6.388
	c0,3.527-2.859,6.388-6.389,6.388c-1.523,0-2.923-0.535-4.021-1.429c-5.768,3.558-14.866,13.003-15.163,37.213
	c0.021-0.021,0.049-0.034,0.069-0.056l34.748-34.75C79.508,41.979,79.508,39.233,77.814,37.541z"/>
</svg>
