<?xml version="1.0" encoding="utf-8"?>
<!-- Generator: Adobe Illustrator 16.0.4, SVG Export Plug-In . SVG Version: 6.00 Build 0)  -->
<!DOCTYPE svg PUBLIC "-//W3C//DTD SVG 1.1//EN" "http://www.w3.org/Graphics/SVG/1.1/DTD/svg11.dtd">
<svg version="1.1" id="Layer_1" xmlns="http://www.w3.org/2000/svg" xmlns:xlink="http://www.w3.org/1999/xlink" x="0px" y="0px"
	 width="1000px" height="200.99px" viewBox="0 0 1000 200.99" enable-background="new 0 0 1000 200.99" xml:space="preserve">
<g>
	<path fill="#FFFFFF" d="M190.228,92.828l-82.816-82.818c-4.035-4.039-10.583-4.039-14.617,0L9.975,92.828
		c-4.035,4.033-4.035,10.58,0.002,14.613l82.818,82.821c0.054,0.054,0.115,0.089,0.168,0.135
		c-0.713-57.531-22.522-80.141-36.224-88.665c-2.61,2.106-5.931,3.376-9.547,3.376c-8.41,0-15.226-6.821-15.226-15.229
		s6.815-15.226,15.226-15.226c7.942,0,14.457,6.084,15.156,13.845c9.239,5.265,21.343,15.219,30.649,33.687V50.478
		c-4.829-2.553-8.121-7.621-8.121-13.462c0-8.409,6.814-15.226,15.227-15.226c8.408,0,15.224,6.817,15.224,15.226
		c0,5.841-3.293,10.909-8.121,13.462v71.711c9.293-18.442,21.37-28.396,30.604-33.666c0.688-7.769,7.209-13.865,15.158-13.865
		c8.41,0,15.224,6.815,15.224,15.226c0,8.408-6.813,15.226-15.224,15.226c-3.635,0-6.967-1.277-9.584-3.404
		c-13.749,8.477-35.435,30.988-36.143,88.691c0.052-0.051,0.118-0.081,0.168-0.135l82.816-82.821
		C194.266,103.408,194.266,96.861,190.228,92.828z"/>
	<g>
		<path fill="#FFFFFF" d="M313.981,69.569c-6.577,0-8.481,0.171-10.21,0.347c0.691,3.461,0.865,6.921,0.865,10.209v7.095
			c-0.173,12.807-3.808,23.538-14.884,28.382c-8.307,3.637-23.363,4.327-31.842,2.943c-2.77,0.347-3.808,5.884,1.211,5.884
			c19.901,0,50.706-6.403,50.706,25.267c0,21.979-16.613,26.132-40.842,25.613c-7.095,0-22.499-0.346-34.958-3.288v-22.498
			c14.192,4.152,55.381,10.038,55.381,0.173c0-3.979-6.23-5.537-18.865-5.537c-13.498,0.347-37.727,2.596-37.727-20.595
			c0-8.827,6.923-13.152,6.75-13.499c-6.577-7.27-6.577-17.133-6.577-22.845v-7.095c0-4.846,0-13.153,4.5-19.901
			c5.712-9.173,20.077-11.422,31.151-11.422c9,0,20.423,1.731,25.267,5.539c2.25-1.557,4.848-2.943,8.481-3.461h11.596V69.569z
			 M277.811,80.125c0-5.537-1.04-7.788-9.173-7.788c-8.134,0-9.345,2.25-9.345,7.788v7.615c0,5.71,1.386,7.268,9.345,7.268
			c7.962,0,9.173-1.558,9.173-7.268V80.125z"/>
		<path fill="#FFFFFF" d="M322.805,10.381h28.729v24.576h-28.729V10.381z M322.805,50.878h28.729v83.936h-28.729V50.878z"/>
		<path fill="#FFFFFF" d="M362.086,24.226h28.729V51.05h17.826v22.327h-17.826v28.036c0.52,15.575,7.27,13.671,19.73,12.632v21.287
			c-20.941,3.635-49.496,1.211-48.458-34.266V24.226z"/>
	</g>
	<g>
		<path fill="#FFFFFF" d="M464.814,73.115v61.783h-12.462V51.309c0,0,0.866,0,2.77,0h6.404c1.904,0,2.25,0,2.25,0l1.038,11.422
			c4.846-4.499,18.69-12.807,31.842-12.807v11.249C483.331,61.694,468.967,69.653,464.814,73.115z"/>
		<path fill="#FFFFFF" d="M541.996,49.58c24.574,0,32.189,9.17,32.189,22.67v62.648h-9.866l-1.729-7.095
			c-7.44,4.846-18.689,8.998-29.768,8.998c-16.615,0-24.574-9.517-24.574-21.112v-8.827c0-11.595,7.616-21.112,23.191-21.112h30.633
			V73.461c0-8.134-4.329-12.807-20.251-12.807c-12.979,0-25.957,5.192-25.957,5.192V54.078
			C515.864,54.078,531.265,49.58,541.996,49.58z M562.072,95.613H533.69c-9.692,0-13.5,5.02-13.5,12.807v5.712
			c0,7.788,4.673,12.287,15.4,12.287c9.174,0,26.481-9.864,26.481-9.864V95.613z"/>
		<path fill="#FFFFFF" d="M668.846,80.557v54.341h-11.942v-54.86c0-14.364-5.884-22.499-21.459-19.383
			c-4.326,0.866-19.901,6.577-23.191,7.788v66.456c0,0-0.519,0-12.46,0V50.962h10.56l1.9,7.27
			c3.115-1.211,17.308-6.577,23.538-7.615C662.787,45.599,668.846,62.558,668.846,80.557z"/>
		<path fill="#FFFFFF" d="M725.606,49.58c6.229,0,13.671,1.382,19.208,2.595V10.293c0,0,0.693,0,12.46,0v120.451
			c0,0-19.036,6.057-31.668,6.057c-27.518,0-33.055-11.42-33.055-29.939V79.52C692.552,61.521,698.089,49.58,725.606,49.58z
			 M704.318,107.382c0,14.364,5.713,19.381,21.635,19.381c4.326,0,18.861-2.939,18.861-2.939V62.558
			c-7.095-1.211-14.535-2.941-18.861-2.941c-15.922,0-21.635,5.019-21.635,19.383V107.382z"/>
		<path fill="#FFFFFF" d="M780.635,105.651V80.73c0-11.596,4.326-31.15,33.747-31.15c29.422,0,33.919,19.555,33.919,31.15v24.92
			c0,11.596-4.497,31.15-33.919,31.15C784.961,136.801,780.635,117.247,780.635,105.651z M792.576,80.211v25.958
			c0,13.499,7.616,20.594,21.806,20.594c14.364,0,21.806-7.095,21.806-20.594V80.211c0-13.498-7.441-20.594-21.806-20.594
			C800.192,59.617,792.576,66.713,792.576,80.211z"/>
		<path fill="#FFFFFF" d="M994.016,80.557v54.341h-11.767v-54.86c0-14.364-7.963-22.499-23.538-19.383
			c-3.287,0.693-12.285,4.326-18.169,6.577c0,0,0,8.654,0,13.326v54.341h-11.771v-54.86c0-14.364-5.884-22.499-21.631-19.383
			c-4.154,0.866-19.904,6.577-23.02,7.788v66.456c0,0-0.518,0-12.46,0V74.327V50.962h10.56l1.9,7.27
			c2.943-1.211,17.136-6.577,23.366-7.615c14.536-2.77,23.017,1.038,27.689,7.788c1.729-0.691,17.304-6.577,23.881-7.788
			C986.057,45.599,994.016,62.558,994.016,80.557z"/>
	</g>
</g>
</svg>
